<?xml version="1.0" standalone="no"?>
<!DOCTYPE svg PUBLIC "-//W3C//DTD SVG 20010904//EN"
 "http://www.w3.org/TR/2001/REC-SVG-20010904/DTD/svg10.dtd">
<svg version="1.0" xmlns="http://www.w3.org/2000/svg"
 width="1280.000000pt" height="1218.000000pt" viewBox="0 0 1280.000000 1218.000000"
 preserveAspectRatio="xMidYMid meet">
<metadata>
Created by potrace 1.15, written by Peter Selinger 2001-2017
</metadata>
<g transform="translate(0.000000,1218.000000) scale(0.100000,-0.100000)"
fill="#000000" stroke="none">
<path d="M4205 12166 c-282 -56 -588 -225 -791 -437 -258 -270 -339 -622 -215
-929 17 -41 29 -76 27 -78 -3 -2 -13 1 -24 7 -80 43 -386 119 -562 141 -123
15 -372 12 -502 -5 -537 -71 -992 -378 -1305 -880 -127 -203 -177 -445 -139
-663 51 -291 249 -558 568 -766 86 -56 321 -176 346 -176 23 0 12 -18 -15 -25
-44 -11 -260 -118 -363 -181 -533 -321 -982 -803 -1154 -1237 -52 -131 -69
-221 -70 -362 0 -193 44 -325 158 -465 151 -188 490 -344 881 -405 230 -36
600 -30 895 15 678 103 1366 395 1711 727 l86 83 17 -42 c9 -24 38 -73 66
-109 143 -190 405 -326 750 -390 105 -19 160 -23 340 -23 217 -1 300 7 465 44
394 90 709 305 856 583 l36 68 18 -28 c10 -15 48 -59 84 -97 304 -317 969
-598 1637 -691 154 -22 485 -30 611 -16 268 31 572 136 773 266 106 68 273
241 331 340 97 166 137 312 146 520 5 131 -7 259 -34 354 -7 28 -36 29 287 -8
601 -69 1074 -71 1417 -6 359 68 658 217 873 434 131 132 184 216 256 404 279
730 98 1585 -409 1929 -116 79 -329 160 -534 204 -163 35 -437 44 -603 20
-185 -27 -405 -90 -566 -161 -31 -14 -58 -25 -59 -25 -1 0 9 37 22 82 86 296
34 686 -136 1033 -79 160 -148 260 -255 373 -108 112 -214 185 -361 247 -686
288 -1489 347 -2284 169 -602 -135 -1141 -507 -1324 -915 -19 -41 -38 -84 -43
-97 -9 -22 -13 -19 -58 53 -287 453 -835 898 -1311 1063 -177 62 -399 86 -540
58z"/>
<path d="M10161 5701 c-180 -204 -297 -308 -776 -691 -366 -294 -527 -432
-688 -593 -270 -269 -408 -501 -423 -714 -20 -264 169 -506 530 -679 315 -150
557 -172 771 -71 147 70 256 190 355 392 163 332 228 706 290 1655 11 173 32
431 46 574 14 142 24 260 22 262 -2 2 -59 -59 -127 -135z"/>
<path d="M2554 5707 c-195 -221 -321 -334 -803 -720 -508 -407 -750 -631 -904
-835 -85 -113 -167 -271 -193 -372 -22 -87 -15 -233 15 -311 30 -80 94 -174
161 -240 115 -113 342 -243 528 -305 309 -102 561 -59 752 126 147 144 248
351 324 660 75 309 105 553 151 1243 14 210 37 490 50 622 13 132 23 241 21
242 -1 2 -47 -48 -102 -110z"/>
<path d="M6423 5558 c-199 -223 -316 -329 -783 -703 -449 -359 -652 -539 -812
-720 -216 -243 -310 -437 -311 -640 -1 -156 61 -283 199 -415 213 -202 556
-350 814 -351 196 -1 328 52 462 185 206 203 340 586 407 1166 27 233 37 358
61 720 21 332 20 319 51 628 11 117 19 220 17 228 -2 11 -38 -23 -105 -98z"/>
<path d="M3450 3328 c-189 -214 -308 -321 -810 -725 -383 -308 -542 -446 -705
-614 -193 -198 -299 -351 -357 -515 -27 -77 -31 -103 -32 -194 -1 -123 14
-183 71 -279 121 -204 470 -422 775 -485 98 -20 256 -21 333 -1 222 56 399
236 517 523 131 319 191 705 248 1577 11 171 32 426 46 568 14 143 24 260 22
261 -2 2 -50 -51 -108 -116z"/>
<path d="M7488 2823 c-200 -222 -310 -321 -763 -683 -486 -389 -731 -611 -880
-795 -183 -225 -254 -386 -254 -575 -1 -246 167 -453 504 -621 145 -73 283
-121 395 -139 361 -56 638 132 803 545 132 332 186 684 248 1615 11 173 31
419 44 545 12 127 22 231 20 233 -1 1 -54 -55 -117 -125z"/>
</g>
</svg>
