<?xml version="1.0" standalone="no"?>
<!DOCTYPE svg PUBLIC "-//W3C//DTD SVG 20010904//EN"
 "http://www.w3.org/TR/2001/REC-SVG-20010904/DTD/svg10.dtd">
<svg version="1.0" xmlns="http://www.w3.org/2000/svg"
 width="1280.000000pt" height="1088.000000pt" viewBox="0 0 1280.000000 1088.000000"
 preserveAspectRatio="xMidYMid meet">
<metadata>
Created by potrace 1.15, written by Peter Selinger 2001-2017
</metadata>
<g transform="translate(0.000000,1088.000000) scale(0.100000,-0.100000)"
fill="#000000" stroke="none">
<path d="M7333 10207 c-12 -67 -92 -538 -178 -1047 -86 -509 -159 -938 -163
-954 -7 -27 -34 16 -292 482 -157 281 -287 512 -290 512 -3 0 0 -303 6 -672 6
-370 10 -674 9 -675 -1 -2 -340 407 -755 907 -414 501 -754 909 -756 907 -2
-1 26 -81 62 -177 36 -96 96 -258 134 -360 38 -102 182 -488 320 -859 138
-371 249 -675 247 -677 -1 -2 -231 134 -510 301 -279 167 -507 301 -507 297 0
-4 150 -257 334 -562 183 -305 332 -556 331 -558 -1 -1 -330 120 -731 269
-401 149 -884 328 -1074 399 -190 70 -357 133 -372 139 -16 6 -28 9 -28 7 0
-5 -36 25 855 -711 385 -317 706 -583 712 -589 10 -8 -20 -12 -122 -13 l-134
-3 -71 45 c-266 163 -657 200 -972 90 -250 -87 -443 -257 -517 -457 l-10 -26
-49 18 c-70 27 -229 67 -347 87 -141 24 -519 24 -660 0 -705 -122 -1205 -549
-1264 -1078 -26 -231 39 -458 192 -672 l34 -48 -29 -82 c-148 -413 -117 -879
84 -1281 270 -539 794 -962 1490 -1201 367 -126 685 -182 1099 -192 310 -7
555 11 809 62 l75 15 80 -30 c169 -66 377 -108 581 -118 l132 -7 -89 -240
c-48 -131 -87 -240 -86 -242 2 -1 97 111 213 251 l209 253 95 17 c264 49 553
181 741 337 l46 38 94 -18 94 -18 0 -200 c0 -111 3 -199 6 -197 3 2 52 86 108
186 l101 183 238 -3 c130 -2 239 -5 241 -8 4 -3 34 -177 187 -1081 37 -222 69
-402 70 -400 3 2 104 593 220 1285 l48 282 50 15 c72 22 80 20 141 -29 108
-88 272 -171 428 -217 l72 -21 55 -99 55 -100 3 91 c2 82 5 91 20 85 35 -14
298 -18 402 -6 90 11 291 55 341 76 12 4 88 -80 310 -349 162 -195 295 -353
297 -352 1 2 -47 138 -108 302 -223 598 -211 564 -191 564 18 0 173 154 216
214 112 159 164 354 137 519 -5 31 -7 57 -5 57 3 0 77 -43 165 -95 88 -53 162
-94 163 -93 2 2 -139 239 -312 528 -173 289 -317 530 -320 536 -2 7 74 -17
169 -53 95 -35 274 -102 398 -148 259 -96 765 -284 1183 -440 159 -59 290
-106 292 -104 1 2 -369 311 -824 687 -454 375 -846 700 -871 722 l-45 40 55
-4 c30 -3 325 -8 655 -11 330 -4 609 -8 620 -11 18 -5 18 -4 4 8 -9 8 -267
153 -573 323 l-557 310 68 13 c75 13 1152 196 1738 293 204 34 373 65 377 69
5 3 -52 16 -125 28 -72 12 -319 54 -547 92 -228 39 -656 111 -950 161 -294 49
-539 91 -544 92 -5 2 246 144 557 317 311 173 565 316 563 318 -2 1 -304 -2
-670 -9 -367 -6 -669 -9 -671 -7 -2 1 386 325 862 718 475 393 869 720 875
727 5 7 -19 1 -54 -12 -130 -50 -1875 -698 -1926 -716 -37 -13 -52 -15 -49 -6
3 6 145 246 316 531 171 286 310 521 308 522 -1 1 -265 -155 -586 -347 -321
-193 -586 -348 -588 -345 -3 2 28 91 67 198 40 106 114 306 165 443 51 138
199 535 329 884 130 349 235 636 233 637 -2 2 -310 -367 -686 -821 -375 -454
-687 -828 -693 -831 -7 -5 -8 53 -4 187 13 420 18 1004 8 994 -5 -5 -154 -271
-332 -590 -303 -546 -340 -610 -340 -591 0 4 -11 71 -25 149 -13 78 -56 330
-95 560 -38 229 -102 605 -140 835 -95 557 -131 766 -134 769 -1 2 -12 -52
-23 -120z"/>
</g>
</svg>
