<?xml version="1.0" standalone="no"?>
<!DOCTYPE svg PUBLIC "-//W3C//DTD SVG 20010904//EN"
 "http://www.w3.org/TR/2001/REC-SVG-20010904/DTD/svg10.dtd">
<svg version="1.0" xmlns="http://www.w3.org/2000/svg"
 width="1280.000000pt" height="1270.000000pt" viewBox="0 0 1280.000000 1270.000000"
 preserveAspectRatio="xMidYMid meet">
<metadata>
Created by potrace 1.15, written by Peter Selinger 2001-2017
</metadata>
<g transform="translate(0.000000,1270.000000) scale(0.100000,-0.100000)"
fill="#000000" stroke="none">
<path d="M6048 11577 c-208 -611 -450 -1327 -539 -1590 -109 -323 -166 -476
-174 -473 -7 2 -700 450 -1540 995 -876 569 -1525 983 -1523 973 4 -13 1112
-3128 1135 -3189 4 -10 -343 -11 -1673 -7 l-1679 7 55 -40 c30 -22 570 -394
1200 -828 630 -434 1147 -790 1149 -792 2 -1 -8 -51 -22 -110 -39 -158 -67
-332 -74 -461 l-6 -114 -96 -77 c-53 -42 -581 -459 -1174 -925 -593 -467
-1077 -850 -1075 -852 2 -1 661 40 1465 93 l1461 95 145 -143 c79 -79 185
-175 235 -214 50 -38 91 -77 91 -85 0 -8 -206 -613 -458 -1345 -252 -731 -457
-1332 -455 -1333 1 -2 622 427 1379 953 757 526 1378 955 1380 953 1 -1 242
-685 535 -1518 293 -833 536 -1521 540 -1529 5 -10 12 2 22 35 202 685 975
3203 983 3200 5 -2 687 -474 1515 -1049 827 -576 1506 -1045 1507 -1043 2 2
-266 790 -596 1752 -330 962 -597 1752 -593 1755 4 4 752 53 1662 108 910 56
1661 103 1668 104 8 1 -525 348 -1183 771 -658 423 -1198 772 -1200 776 -2 3
599 421 1336 929 736 508 1339 926 1339 929 0 3 -758 2 -1684 -1 l-1684 -7
-132 134 c-72 73 -171 166 -219 206 l-88 72 504 1636 c277 900 502 1640 501
1644 -2 5 -590 -457 -1308 -1026 -717 -569 -1305 -1034 -1307 -1033 -1 1 -212
623 -469 1382 -257 759 -470 1383 -473 1387 -4 4 -176 -493 -383 -1105z"/>
</g>
</svg>
