<?xml version="1.0" standalone="no"?>
<!DOCTYPE svg PUBLIC "-//W3C//DTD SVG 20010904//EN"
 "http://www.w3.org/TR/2001/REC-SVG-20010904/DTD/svg10.dtd">
<svg version="1.0" xmlns="http://www.w3.org/2000/svg"
 width="1280.000000pt" height="1109.000000pt" viewBox="0 0 1280.000000 1109.000000"
 preserveAspectRatio="xMidYMid meet">
<metadata>
Created by potrace 1.15, written by Peter Selinger 2001-2017
</metadata>
<g transform="translate(0.000000,1109.000000) scale(0.100000,-0.100000)"
fill="#000000" stroke="none">
<path d="M6570 11080 c-727 -69 -1371 -368 -1865 -865 -295 -297 -509 -633
-647 -1020 -22 -60 -41 -111 -43 -113 -1 -2 -30 10 -64 27 -191 97 -469 121
-690 61 -407 -112 -710 -475 -737 -883 -8 -110 -6 -107 -51 -96 -183 43 -579
55 -803 25 -705 -95 -1269 -440 -1529 -937 -100 -189 -134 -333 -135 -554 0
-140 3 -173 26 -265 60 -238 170 -431 357 -624 299 -309 725 -514 1226 -592
150 -24 578 -27 720 -6 271 41 499 108 724 213 57 27 105 48 106 47 1 -2 12
-30 25 -63 174 -448 559 -783 1032 -899 494 -121 999 19 1380 383 l78 73 102
-45 c169 -74 376 -132 548 -153 l55 -7 575 -913 c316 -503 578 -914 582 -914
4 0 126 63 271 140 146 77 269 140 275 140 5 0 466 -724 1023 -1609 558 -885
1015 -1608 1017 -1606 2 2 -8 41 -22 87 -14 46 -52 176 -85 291 -34 114 -88
300 -122 415 -33 114 -91 313 -129 442 -38 129 -96 330 -130 445 -130 442
-186 634 -310 1060 -71 242 -156 535 -190 650 -34 116 -120 410 -191 655 -71
245 -132 453 -135 462 -4 15 -1 15 48 2 208 -55 509 -82 741 -66 364 27 618
93 922 242 261 127 412 235 615 439 74 75 166 179 204 233 l69 96 136 -5 c779
-29 1378 652 1226 1392 -46 222 -142 401 -310 574 -175 182 -404 303 -653 346
-133 23 -326 21 -453 -5 l-102 -21 -131 129 c-193 189 -369 314 -603 428 -197
96 -446 175 -663 210 -58 9 -106 18 -108 19 -1 1 -12 65 -23 141 -24 170 -75
374 -129 526 -92 254 -270 567 -446 788 -93 116 -318 340 -435 434 -158 125
-343 242 -534 336 -318 158 -573 237 -930 290 -161 24 -529 34 -685 20z m1263
-5996 c152 -141 335 -267 528 -364 114 -58 298 -132 372 -150 26 -7 47 -15 47
-19 0 -3 -73 -44 -163 -91 -89 -47 -210 -110 -269 -141 l-107 -57 -227 407
c-125 223 -238 425 -251 449 -14 23 -22 42 -18 42 4 0 44 -34 88 -76z"/>
</g>
</svg>
